<?xml version="1.0" encoding="UTF-8" standalone="no"?>
<!DOCTYPE svg PUBLIC "-//W3C//DTD SVG 1.1//EN" "http://www.w3.org/Graphics/SVG/1.1/DTD/svg11.dtd">
<svg version="1.1" xmlns="http://www.w3.org/2000/svg" xmlns:xlink="http://www.w3.org/1999/xlink" preserveAspectRatio="xMidYMid meet" viewBox="0 0 640 640" width="640" height="640"><defs><path d="M527.87 223.74C527.87 215.94 526.21 208.9 522.75 203.01C519.42 197.12 514.43 192.26 507.78 188.42C452.48 156.54 397.06 124.67 341.76 92.8C326.78 84.22 312.45 84.48 297.6 93.18C275.58 106.11 165.25 169.34 132.48 188.42C118.91 196.22 112.38 208.26 112.38 223.87C112.38 288 112.38 352.26 112.38 416.38C112.38 424.06 114.05 430.85 117.25 436.74C120.58 442.75 125.7 447.87 132.48 451.84C165.38 470.91 275.58 534.02 297.6 547.07C312.45 555.78 326.91 556.16 341.76 547.46C397.06 515.46 452.48 483.71 507.78 451.84C514.69 447.87 519.68 442.88 523.01 436.74C526.21 430.85 527.87 424.06 527.87 416.38C527.87 416.26 527.87 287.87 527.87 223.74" id="biFj5I6n3"></path><path d="M320.64 319.36C198.45 389.71 130.57 428.79 116.99 436.61C120.32 442.62 125.44 447.74 132.22 451.71C165.12 470.78 275.33 533.89 297.34 546.94C312.19 555.65 326.66 556.03 341.5 547.33C396.8 515.33 452.22 483.58 507.52 451.71C514.43 447.74 519.42 442.75 522.75 436.61C509.28 428.79 441.91 389.71 320.64 319.36" id="cuseJdPAh"></path><path d="M260.35 354.05C272.26 374.78 294.53 388.74 320 388.74C345.73 388.74 368.13 374.66 379.9 353.66C375.95 351.38 356.2 339.94 320.64 319.36L260.35 354.05" id="a1tp0Z75d5"></path><path d="M527.87 223.74C527.87 215.94 526.21 208.9 522.75 203.01C509.28 210.76 441.91 249.55 320.64 319.36C442.06 389.71 509.52 428.79 523.01 436.61C526.21 430.72 527.87 423.94 527.87 416.26C527.87 416.26 527.87 287.87 527.87 223.74" id="a7xvgE2PyU"></path><path d="M516.74 327.81L500.86 327.81L500.86 343.55L485.12 343.55L485.12 327.81L469.25 327.81L469.25 311.94L485.12 311.94L485.12 296.19L500.86 296.19L500.86 311.94L516.74 311.94L516.74 327.81" id="l33ED4AhgK"></path><path d="M459.01 327.81L443.14 327.81L443.14 343.55L427.39 343.55L427.39 327.81L411.52 327.81L411.52 311.94L427.39 311.94L427.39 296.19L443.14 296.19L443.14 311.94L459.01 311.94L459.01 327.81" id="b2HhOhK86C"></path><path d="M379.9 353.66C368.13 374.53 345.73 388.74 320 388.74C294.4 388.74 272.13 374.78 260.35 354.05C254.59 343.94 251.26 332.42 251.26 320C251.26 281.98 281.98 251.26 320 251.26C345.34 251.26 367.49 265.09 379.39 285.57C385.4 282.11 433.42 254.46 439.42 251.01C415.49 209.79 370.94 182.02 319.87 182.02C243.58 182.02 181.89 243.84 181.89 320C181.89 344.96 188.54 368.51 200.19 388.74C224 430.08 268.8 457.98 320 457.98C371.33 457.98 416.13 429.95 439.94 388.35C435.93 386.04 415.92 374.48 379.9 353.66" id="n7DWpseaT"></path></defs><g><g><g><use xlink:href="#biFj5I6n3" opacity="1" fill="#5c8dbc" fill-opacity="1"></use><g><use xlink:href="#biFj5I6n3" opacity="1" fill-opacity="0" stroke="#000000" stroke-width="1" stroke-opacity="0"></use></g></g><g><use xlink:href="#cuseJdPAh" opacity="1" fill="#1a4674" fill-opacity="1"></use><g><use xlink:href="#cuseJdPAh" opacity="1" fill-opacity="0" stroke="#000000" stroke-width="1" stroke-opacity="0"></use></g></g><g><use xlink:href="#a1tp0Z75d5" opacity="1" fill="#1a4674" fill-opacity="1"></use><g><use xlink:href="#a1tp0Z75d5" opacity="1" fill-opacity="0" stroke="#000000" stroke-width="1" stroke-opacity="0"></use></g></g><g><use xlink:href="#a7xvgE2PyU" opacity="1" fill="#1b598e" fill-opacity="1"></use><g><use xlink:href="#a7xvgE2PyU" opacity="1" fill-opacity="0" stroke="#000000" stroke-width="1" stroke-opacity="0"></use></g></g><g><use xlink:href="#l33ED4AhgK" opacity="1" fill="#ffffff" fill-opacity="1"></use><g><use xlink:href="#l33ED4AhgK" opacity="1" fill-opacity="0" stroke="#000000" stroke-width="1" stroke-opacity="0"></use></g></g><g><use xlink:href="#b2HhOhK86C" opacity="1" fill="#ffffff" fill-opacity="1"></use><g><use xlink:href="#b2HhOhK86C" opacity="1" fill-opacity="0" stroke="#000000" stroke-width="1" stroke-opacity="0"></use></g></g><g><use xlink:href="#n7DWpseaT" opacity="1" fill="#ffffff" fill-opacity="1"></use><g><use xlink:href="#n7DWpseaT" opacity="1" fill-opacity="0" stroke="#000000" stroke-width="1" stroke-opacity="0"></use></g></g></g></g></svg>