<?xml version="1.0" encoding="UTF-8" standalone="no"?>
<!DOCTYPE svg PUBLIC "-//W3C//DTD SVG 1.1//EN" "http://www.w3.org/Graphics/SVG/1.1/DTD/svg11.dtd">
<svg version="1.1" xmlns="http://www.w3.org/2000/svg" xmlns:xlink="http://www.w3.org/1999/xlink" preserveAspectRatio="xMidYMid meet" viewBox="0 0 640 640" width="420" height="420"><defs><path d="M159.09 76.48C159.09 79.69 159.13 95.75 159.21 124.64L261.49 124.64L261.49 139.1C175.74 139.1 128.11 139.1 118.58 139.1C118.58 139.1 50 131.32 50 239.46C50 347.61 109.86 343.77 109.86 343.77C112.24 343.77 124.15 343.77 145.58 343.77C145.58 313.66 145.58 296.94 145.58 293.59C145.58 293.59 143.66 233.73 204.49 233.73C214.64 233.73 295.79 233.73 305.93 233.73C305.93 233.73 362.93 234.65 362.93 178.64C362.93 169.38 362.93 95.3 362.93 86.04C362.93 86.04 371.58 30 259.57 30C259.57 30 259.57 30 259.57 30L259.57 30C205.98 54.79 172.49 70.29 159.09 76.48ZM221.58 80.79C221.58 90.96 213.35 99.19 203.18 99.19C193 99.19 184.78 90.96 184.78 80.79C184.78 70.61 193 62.39 203.18 62.39C203.18 62.39 203.18 62.39 203.18 62.39L203.18 62.39C215.44 67.87 221.58 74 221.58 80.79Z" id="aPPNGaj4R"></path><linearGradient id="gradientbaALO6cO3C" gradientUnits="userSpaceOnUse" x1="90.57" y1="67.78" x2="299.34" y2="275.39"><stop style="stop-color: #387eb8;stop-opacity: 1" offset="0%"></stop><stop style="stop-color: #366994;stop-opacity: 1" offset="100%"></stop></linearGradient><path d="M363.11 403.53C363.1 400.31 363.06 384.26 362.99 355.37L260.71 355.37L260.71 340.91C346.45 340.91 394.08 340.91 403.61 340.91C403.61 340.91 472.2 348.69 472.2 240.55C472.2 132.4 412.33 136.24 412.33 136.24C409.95 136.24 398.04 136.24 376.61 136.24C376.61 166.35 376.61 183.07 376.61 186.42C376.61 186.42 378.53 246.28 317.7 246.28C307.56 246.28 226.4 246.28 216.26 246.28C216.26 246.28 159.26 245.36 159.26 301.37C159.26 310.63 159.26 384.71 159.26 393.97C159.26 393.97 150.61 450 262.62 450C262.62 450 262.62 450 262.62 450L262.62 450C316.21 425.22 349.71 409.72 363.11 403.53ZM300.61 399.22C300.61 389.05 308.84 380.82 319.02 380.82C329.19 380.82 337.42 389.05 337.42 399.22C337.42 409.4 329.19 417.62 319.02 417.62C319.02 417.62 319.02 417.62 319.02 417.62L319.02 417.62C306.75 412.14 300.61 406.01 300.61 399.22Z" id="b4Q2UoQJT"></path><linearGradient id="gradientc63MaS5zW" gradientUnits="userSpaceOnUse" x1="218.99" y1="200.79" x2="443.21" y2="413.7"><stop style="stop-color: #ffe052;stop-opacity: 1" offset="0%"></stop><stop style="stop-color: #ffc331;stop-opacity: 1" offset="100%"></stop></linearGradient></defs><g><g><g><use xlink:href="#aPPNGaj4R" opacity="1" fill="url(#gradientbaALO6cO3C)"></use><g><use xlink:href="#aPPNGaj4R" opacity="1" fill-opacity="0" stroke="#000000" stroke-width="1" stroke-opacity="0"></use></g></g><g><use xlink:href="#b4Q2UoQJT" opacity="1" fill="url(#gradientc63MaS5zW)"></use><g><use xlink:href="#b4Q2UoQJT" opacity="1" fill-opacity="0" stroke="#000000" stroke-width="1" stroke-opacity="0"></use></g></g></g></g></svg>